<?xml version="1.0" encoding="utf-8"?>
<svg viewBox="0 0 1024 1024" xmlns="http://www.w3.org/2000/svg">
  <g id="g-12" transform="matrix(1.163134, 0, 0, 1.163081, -9.026067, -35.353493)" style="">
    <title>logo4</title>
    <g style="" transform="matrix(0.832517, 0, 0, 0.832517, 75.024178, 82.846268)">
      <title>hintergrund</title>
      <path d="M 0 348.179 L 337.63 761.13 L 382.994 761.13 L 403.081 786.592 L 460.382 786.592 L 484.09 761.13 L 535.023 761.13 L 896 348.179 L 895.567 320.246 L -0.1 319.935 L 0 348.179 Z" id="path-22" style="stroke-linecap: round; stroke-linejoin: round; stroke-width: 30px; stroke: rgb(146, 170, 121); fill: rgb(182, 213, 151);">
        <title>fuellung</title>
      </path>
      <path d="M 1.148 319.517 L 337.913 731.409 L 383.161 731.409 L 403.196 756.806 L 460.35 756.806 L 483.997 731.409 L 534.8 731.409 L 894.852 319.517 L 729.435 144.945 L 169.763 144.945 L 1.148 319.517 Z" id="path-23" style="stroke-linecap: round; stroke-linejoin: round; stroke-width: 30px; fill: rgb(182, 213, 151); stroke: rgb(197, 221, 172);">
        <title>dimension</title>
      </path>
    </g>
    <g id="g-13" transform="matrix(0.931649, 0, 0, 0.931649, 246.421875, 139.795685)" style="">
      <title>wappen</title>
      <polygon style="fill-rule: nonzero; paint-order: stroke; fill: rgb(255, 255, 255); stroke: rgb(197, 221, 172); stroke-width: 150.381px; stroke-linejoin: round;" points="213.069 205.85 165.857 323.687 242.624 274.641 225.373 366.141 137.779 452.104 129 504.676 142.963 456.164 240.507 385.263 297.465 208.582 208.361 273.38 231.462 216.988 318.3 133.976"/>
      <polygon style="fill-rule: nonzero; paint-order: stroke; fill: rgb(182, 213, 151); stroke: rgb(255, 255, 255); stroke-width: 75.1906px; stroke-linejoin: round;" points="213.069 205.85 165.857 323.687 242.624 274.641 225.373 366.141 137.779 452.104 129 504.676 142.963 456.164 240.507 385.263 297.465 208.582 208.361 273.38 231.462 216.988 318.3 133.976"/>
    </g>
  </g>
</svg>