<svg xmlns="http://www.w3.org/2000/svg" width="512" height="512" viewBox="0 0 135.46666 135.46667"><path d="M67.733332 101.18219q2.843157 0 4.766461-1.923297 1.923312-1.923304 1.923312-4.766464 0-2.843157-1.923312-4.766468-1.923304-1.923303-4.766461-1.923303-2.843156 0-4.766467 1.923303-1.923306 1.923311-1.923306 4.766468 0 2.84316 1.923306 4.766464 1.923311 1.923297 4.766467 1.923297zm0-26.759084q2.843157 0 4.766461-1.923305 1.923312-1.923311 1.923312-4.766468V40.974234q0-2.843157-1.923312-4.766469-1.923304-1.923312-4.766461-1.923312-2.843156 0-4.766467 1.923312-1.923306 1.923312-1.923306 4.766469v26.759099q0 2.843157 1.923306 4.766468 1.923311 1.923305 4.766467 1.923305zM48.165739 127.94131q-2.675909 0-5.100953-1.00347-2.425044-1.00347-4.264732-2.84315L11.371979 96.666601q-1.8396907-1.839681-2.8431569-4.264726-1.0034666-2.425044-1.0034666-5.10095V48.165741q0-2.675908 1.0034666-5.100953 1.0034662-2.425045 2.8431569-4.264735l27.428075-27.428075q1.839688-1.8396907 4.264732-2.8431569 2.425044-1.0034664 5.100953-1.0034664h39.135186q2.675906 0 5.10095 1.0034664 2.425045 1.0034662 4.264735 2.8431569l27.42808 27.428075q1.83968 1.83969 2.84315 4.264735t1.00347 5.100953v39.135184q0 2.675906-1.00347 5.10095-1.00347 2.425045-2.84315 4.264726L96.66661 124.09469q-1.83969 1.83968-4.264735 2.84315-2.425044 1.00347-5.10095 1.00347zm.167244-13.37955h38.800699l27.428078-27.428083V48.332982L87.133682 20.904907H48.332983L20.904906 48.332982v38.800695Zm19.400349-46.828427Z" style="stroke-width:.167244"/></svg>